# xmcd CD database file
#
# Track frame offsets:
#	150
#	20745
#	40810
#	61683
#	75950
#	99973
#	114824
#	136275
#	153709
#	177919
#
# Disc length: 2610 seconds
#
# Revision: 1
# Processed by: cddbd v1.5.1PL2 Copyright (c) Steve Scherf et al.
# Submitted via: CDex 1.51
#
DISCID=6e0a300a
DTITLE=blue - Nail ボーカルコレクション
DYEAR=2006
DGENRE=Game
TTITLE0=as you like
TTITLE1=星降る夜に
TTITLE2=ふわり・ゆら
TTITLE3=hello my love〜逢いに来たよ
TTITLE4=present for you
TTITLE5=春風に誘われて
TTITLE6=shine
TTITLE7=air
TTITLE8=days
TTITLE9=春風に吹かれて
EXTD=YEAR: 2006
EXTT0=
EXTT1=
EXTT2=
EXTT3=
EXTT4=
EXTT5=
EXTT6=
EXTT7=
EXTT8=
EXTT9=
PLAYORDER=
